<svg width="52" height="95" viewBox="0 0 52 95" fill="none" xmlns="http://www.w3.org/2000/svg">
    <path d="M50.763 82.433s-1.369 4.079-9.623 4.958c-8.254.88-11.775-.88-11.775-.88s5.503-4.29 10.785-4.51c5.283-.22 10.613.432 10.613.432z" fill="#DEDEDE"></path>
    <path d="M50.763 82.433s.62-4.266-6.215-8.975c-6.836-4.707-10.771-4.838-10.771-4.838s2.258 5.813 7.76 9.216c4.495 2.782 9.226 4.597 9.226 4.597zM40.975 79.413s-4.21-1.899-10.565-1.899c-6.356 0-11.142 3.302-11.142 3.302s4.704 1.897 11.473 1.897c6.767.001 10.234-3.3 10.234-3.3zM33.195 75.37s-.342-4.606-3.375-10.19c-3.034-5.585-8.22-8.215-8.22-8.215s.578 5.04 3.808 10.987c3.231 5.947 7.787 7.418 7.787 7.418zM30.02 74.795s-3.646-2.832-9.825-4.32c-6.178-1.489-11.605.6-11.605.6s4.13 2.949 10.71 4.534c6.578 1.584 10.72-.814 10.72-.814zM24.552 69.885s-2.27-4.02-7.395-7.78c-5.124-3.76-10.935-3.932-10.935-3.932s2.67 4.314 8.125 8.32c5.457 4.004 10.205 3.392 10.205 3.392zM19.122 61.617s1.537-4.116 1.135-10.148c-.401-6.034-3.837-10.37-3.837-10.37s-1.506 4.586-1.079 11.012c.429 6.422 3.78 9.506 3.78 9.506zM14.81 57.717s-1.58-3.663-5.634-7.364C5.12 46.651.144 45.97.144 45.97s1.895 3.952 6.214 7.894c4.317 3.941 8.452 3.854 8.452 3.854zM12.365 49.599s-.195-3.985-2.694-8.874c-2.5-4.888-6.92-7.273-6.92-7.273s.39 4.365 3.051 9.571c2.66 5.207 6.563 6.576 6.563 6.576zM10.658 37.709s.343-3.975-1.475-9.155c-1.82-5.181-5.879-8.138-5.879-8.138s-.2 4.378 1.735 9.893c1.936 5.52 5.62 7.4 5.62 7.4zM12.305 29.873s1.825-3.547 2.107-9.03c.282-5.484-2.354-9.76-2.354-9.76s-1.847 3.974-2.148 9.813c-.301 5.84 2.395 8.977 2.395 8.977zM16.801 20.445s2.377-3.203 3.546-8.568c1.169-5.364-.736-10.013-.736-10.013s-2.47 3.622-3.714 9.335c-1.245 5.713.904 9.246.904 9.246zM12.573 44.486s2.972-2.661 5.192-7.683 1.287-9.958 1.287-9.958-3.146 3.053-5.51 8.4c-2.366 5.348-.969 9.24-.969 9.24zM15.857 26.537s3.798-1.222 7.871-4.904c4.072-3.682 5.228-8.57 5.228-8.57s-4.115 1.508-8.451 5.43c-4.34 3.92-4.647 8.044-4.647 8.044zM21.468 15.552s3.594-1.735 7.12-5.94c3.527-4.209 3.998-9.21 3.998-9.21s-3.867 2.06-7.624 6.541c-3.754 4.48-3.494 8.609-3.494 8.609zM51.334 85.015c0 5.522-9.086 11.532-9.086 8.597 0-2.934 9.086-6.64 9.086-8.597z" fill="#DEDEDE"></path>
</svg>