<svg width="78" height="17" viewBox="0 0 78 17" fill="none" xmlns="http://www.w3.org/2000/svg">
    <path d="M0 .82v15.813h15.486V.82H0zm12.277 12.557c-.046.28-.093.605-.325.744a8.965 8.965 0 0 1-2.232 0c-.28-.14-.28-.465-.326-.744-.558-2.465-1.023-4.93-1.581-7.394-.093.186-.186.418-.186.604-.465 2.28-.977 4.558-1.442 6.883-.046.28-.14.698-.511.698-.698.046-1.396.093-2.047-.047-.372-.279-.279-.79-.418-1.162-.651-3.21-1.302-6.465-1.953-9.673h2.139c.465 2.93.93 5.86 1.442 8.742.093-.232.186-.418.232-.65.512-2.465 1.07-4.93 1.581-7.395.047-.232.14-.65.465-.65a10.627 10.627 0 0 1 1.721 0c.465.232.419.836.558 1.255.558 2.511.977 5.022 1.628 7.487.558-2.93.976-5.86 1.488-8.79h1.953c-.883 3.349-1.535 6.744-2.186 10.092zM26.88 14.26h-7.487v-1.952h2.65V5.146h-2.65V3.193h7.487v1.953h-2.65v7.162h2.65v1.953zM30.833.82v15.813h15.486V.82H30.833zM41.11 14.169c-.093-1.163-.186-2.325-.232-3.535 0-.465-.512-.79-.93-.744H36.46v4.232h-2.14V3.286h6.372c.65 0 1.441.093 1.86.65.512.698.512 1.628.512 2.419 0 .697-.047 1.488-.512 2.046-.325.419-.884.465-1.302.698.605.186 1.349.325 1.535 1.023.372 1.302.14 2.65.325 4-.651.046-1.349.046-2 .046zM58.364 14.26h-9.301v-1.952h1.488V5.146h-1.488V3.193h9.161v3.58h-2V5.1h-3.58v2.465h2.883v1.86h-2.883v2.837h3.674v-1.907h2c.046 1.35.046 2.605.046 3.907zM61.666.82v15.813h15.672V.82H61.666zm11.998 12.092c-.651.977-1.953 1.21-3.07 1.21H65.2V3.285h5.627c1.07.046 2.233.279 2.884 1.209.79 1.255.65 2.79.79 4.185-.186 1.442-.093 2.976-.837 4.232z" fill="#C9C9C9"></path>
    <path d="M24.23 5.146h2.65V3.193h-7.487v1.953h2.65v7.162h-2.65v1.953h7.487v-1.953h-2.65V5.146zM56.364 10.4v1.907H52.69V9.471h2.884V7.61H52.69V5.145h3.581V6.82h2V3.239h-9.162v1.953h1.488v7.162H49.11v1.953h9.301v-3.813c-.697-.093-1.395-.093-2.046-.093zM40.599 5.1c-1.395-.094-2.744 0-4.139-.047v3.162c1.302 0 2.558.047 3.86-.046.697-.047.697-.884.744-1.395-.047-.512.047-1.302-.465-1.675zM72.083 5.844c-.186-.512-.745-.791-1.256-.791h-3.488v7.301h3.302c.511 0 1.163-.14 1.395-.65.372-.791.28-1.721.326-2.605-.093-1.07.093-2.186-.28-3.255z" fill="#C9C9C9"></path>
</svg>