<svg width="64" height="56" viewBox="0 0 64 56" fill="none" xmlns="http://www.w3.org/2000/svg">
    <path d="M32 1l.392-.92a1 1 0 0 0-.779-.002L32 1zM1 14l-.387-.922a1 1 0 0 0-.012 1.839L1 14zm31 13.5l-.4.917a1 1 0 0 0 .805-.003L32 27.5zM62.5 14l.405.914a1 1 0 0 0-.013-1.834L62.5 14zm-30.134-.57a1 1 0 0 0-.732-1.86l.732 1.86zM18 18l-.366-.93A1 1 0 0 0 17 18h1zM7.5 31h-1a1 1 0 0 0 .56.898L7.5 31zM32 43l-.44.898a1 1 0 0 0 .895-.007L32 43zm23.5-12l.455.89A1 1 0 0 0 56.5 31h-1zm-31 24v1a1 1 0 0 0 .756-1.655L24.5 55zM12 55l-.78-.625A1 1 0 0 0 12 56v-1zM31.613.078l-31 13 .774 1.844 31-13-.774-1.844zm.792 28.336l30.5-13.5-.81-1.828-30.5 13.5.81 1.828zM62.892 13.08l-30.5-13-.784 1.84 30.5 13 .784-1.84zm-31.258-1.51l-14 5.5.732 1.86 14-5.5-.732-1.86zM17 18v29.5h2V18h-2zM.6 14.917l6.5 2.83.8-1.833-6.5-2.83-.8 1.833zm6.5 2.83l24.5 10.67.8-1.834-24.5-10.67-.8 1.834zm-.6-.916V31h2V16.83h-2zm.56 15.067l24.5 12 .88-1.796-24.5-12-.88 1.796zm25.395 11.993l23.5-12-.91-1.782-23.5 12 .91 1.782zM56.5 31V18h-2v13h2zm-32 23H12v2h12.5v-2zm-11.72 1.625l6-7.5-1.56-1.25-6 7.5 1.56 1.25zm4.464-7.47l6.5 7.5 1.512-1.31-6.5-7.5-1.512 1.31z" fill="#fff"></path>
</svg>