<svg width="41" height="58" viewBox="0 0 41 58" fill="none" xmlns="http://www.w3.org/2000/svg">
    <path d="M37.65 15.67c-4.233-2.748-17.229 1.114-17.229 1.114S7.425 12.922 3.192 15.67c-4.233 2.747-1.485 15.075-1.485 15.075s1.634 4.233 1.262 7.5c-.222 3.268-1.04 17.156 3.714 18.715C11.36 58.52 16.93 43.147 16.93 43.147s1.262-3.416 3.565-3.416c2.302 0 3.564 3.416 3.564 3.416S29.556 58.594 34.31 56.96c4.678-1.56 3.861-15.447 3.564-18.714-.297-3.268 1.263-7.5 1.263-7.5s2.748-12.329-1.486-15.076z" stroke="#fff" stroke-width="1.83" stroke-miterlimit="10" stroke-linecap="round" stroke-linejoin="round"></path>
    <path d="M36.388 21.388l-4.604.668a2.679 2.679 0 0 0-2.302 2.302l-.817 4.605-.669-4.605a2.679 2.679 0 0 0-2.302-2.302l-4.678-.817 4.604-.668a2.679 2.679 0 0 0 2.302-2.302l.817-4.679.668 4.605a2.679 2.679 0 0 0 2.303 2.302l4.678.89zM17.524 5.867l-2.97.445c-.744.075-1.412.669-1.486 1.486l-.52 2.97-.446-2.97c-.074-.743-.668-1.411-1.485-1.486l-3.045-.52 2.97-.445c.744-.074 1.412-.668 1.486-1.485l.52-2.97.445 2.97c.075.742.669 1.41 1.486 1.485l3.045.52zM5.344 24.21s0-4.827 4.827-4.827" stroke="#fff" stroke-width="1.83" stroke-miterlimit="10" stroke-linecap="round" stroke-linejoin="round"></path>
</svg>