<svg width="38" height="28" viewBox="0 0 38 28" fill="none" xmlns="http://www.w3.org/2000/svg">
    <path d="M7.25 14.528c0 .302.116.605.307.832.23.227.535.303.88.303.305 0 .573-.114.764-.303.23-.227.306-.454.306-.794 0-.341-.114-.644-.306-.833-.19-.227-.42-.303-.764-.303-.345 0-.612.114-.842.303-.23.227-.344.454-.344.795zm-3.632-1.211c-.345 0-.612.114-.804.34-.229.227-.344.53-.344.833 0 .303.115.567.344.756.192.227.46.341.804.341.306 0 .612-.114.803-.34a1.05 1.05 0 0 0 .306-.757c0-.303-.115-.606-.306-.832-.191-.227-.46-.341-.803-.341zM13.6 9.193l.076-.151h14.84c-1.492 1.021-2.716 2.27-3.596 3.783-.88 1.476-1.644 3.632-2.295 6.47-.497 2.27-.764 4.085-.764 5.447v.227c-.765-.15-1.569-.34-2.333-.68-1.377-.606-2.601-1.4-3.634-2.422-.765-.719-1.338-1.513-1.835-2.459.229-.303.535-.68.803-1.135.688-1.173.994-2.421.994-3.783a7.286 7.286 0 0 0-.574-2.875A6.944 6.944 0 0 0 13.6 9.193zM6.295 14.49v-3.178h.956v1.74-.038c.076-.113.23-.189.382-.302.192-.114.421-.19.727-.19.574 0 1.033.19 1.415.568.383.378.612.87.612 1.4 0 .53-.191.983-.497 1.362-.383.454-.88.68-1.415.68-.689 0-1.186-.226-1.568-.604-.383-.379-.574-.87-.612-1.438zm-4.78.038c0-.53.19-.984.573-1.362.382-.492.88-.681 1.568-.681.459 0 .88.151 1.338.454.421.34.65.87.65 1.589v1.853h-.879v-.378a1.895 1.895 0 0 1-1.147.378c-.765 0-1.3-.227-1.645-.605-.268-.378-.459-.794-.459-1.248zm13.423.643a1.68 1.68 0 0 1-.765.946c-.344.302-.765.416-1.185.416-.536 0-.995-.227-1.415-.606a2.013 2.013 0 0 1-.612-1.475c0-.568.23-1.06.612-1.438.382-.378.88-.567 1.415-.567.306 0 .573.076.88.19.229.113.496.302.726.453.191.227.306.492.383.757h-1.071c-.23-.34-.498-.492-.88-.492-.306 0-.574.113-.765.303-.23.226-.344.491-.344.794 0 .303.115.605.344.832.23.227.459.34.765.34.382 0 .727-.15.88-.453h1.032zm19.429-5.789c.038.038.038.114.076.19.612 1.362.88 2.837.88 4.388 0 1.513-.306 2.913-.88 4.313-.573 1.362-1.377 2.61-2.447 3.632a11.282 11.282 0 0 1-3.634 2.421c-1.07.416-2.18.72-3.327.795v-.265c0-4.086.803-7.415 2.371-10.026 1.53-2.572 3.863-4.388 6.96-5.448zM32.569 6.47H15.397c.191-.189.306-.34.497-.53a11.282 11.282 0 0 1 3.634-2.42c1.377-.568 2.868-.833 4.398-.833h.038c1.568 0 3.021.303 4.437.87a11.432 11.432 0 0 1 3.595 2.384c.19.189.382.378.573.53zM11.917 21.15c.612.945 1.3 1.853 2.065 2.61a13.976 13.976 0 0 0 4.513 2.989c1.76.718 3.557 1.059 5.47 1.059 1.873 0 3.709-.34 5.43-1.06 1.72-.756 3.213-1.74 4.513-3.026a13.125 13.125 0 0 0 2.983-4.464C37.656 17.592 38 15.814 38 13.922c0-1.891-.344-3.707-1.11-5.372a14.332 14.332 0 0 0-2.982-4.464c-1.3-1.286-2.83-2.27-4.475-2.989C27.713.34 25.915 0 23.964 0c-1.95 0-3.786.34-5.469 1.097a13.977 13.977 0 0 0-4.513 2.989 12.582 12.582 0 0 0-2.6 3.556c-.077-.038-.154-.038-.23-.076-.918-.378-1.912-.605-2.907-.605-1.377 0-2.639.34-3.824 1.022-1.186.68-2.104 1.626-2.792 2.8-.65 1.172-.994 2.42-.994 3.745a7.28 7.28 0 0 0 1.032 3.745c.689 1.173 1.606 2.119 2.792 2.8 1.186.68 2.41.983 3.825.983 1.3-.038 2.524-.302 3.633-.908z" fill="#C9C9C9"></path>
</svg>