<svg width="76" height="15" viewBox="0 0 76 15" fill="none" xmlns="http://www.w3.org/2000/svg">
    <path d="M.495.94c2.132 0 4.22-.045 6.352 0 1.644.044 2.932 1.154 3.198 2.664.311 1.733-.577 3.198-1.954 3.554-.045 0-.045.044-.09.089 1.29.355 2.089 1.243 2.31 2.532.356 2.132-.799 3.908-3.064 4.13-.489.045-.977.045-1.51.045H.495V.939zm2.799 10.615c.044 0 .088.045.088.045.889 0 1.777.044 2.621 0 .888-.045 1.466-.622 1.466-1.422.044-.844-.489-1.421-1.377-1.51-.578-.089-1.155-.044-1.688-.044H3.249c.045.932.045 1.91.045 2.931zm0-5.419h2.354c.133 0 .31 0 .444-.044.533-.09.977-.4 1.11-.977.222-.933-.355-1.688-1.288-1.733h-2.62v2.754zM51 14.265c-.311-.045-.667-.089-.978-.178-2.576-.622-3.864-2.798-3.642-5.241.178-2.044 1.2-3.51 3.154-4.22 2.754-.977 5.907.355 6.352 3.953.044.489.044.977.089 1.51H48.91c.179.889.623 1.51 1.422 1.866 1.288.533 2.488.267 3.598-.444a.613.613 0 0 0 .178-.133h.044a34.7 34.7 0 0 1 1.11 1.643c-.355.222-.71.489-1.065.666-.666.356-1.422.534-2.177.578-.089 0-.177.044-.266.044-.222-.044-.489-.044-.755-.044zm2.532-5.908c.044-1.155-1.066-2.088-2.488-1.999-1.2.045-2.22 1.066-2.088 2h4.575zM61.127 14.265c-.4-.09-.8-.133-1.2-.267-1.91-.533-3.242-2.132-3.42-4.13-.177-1.866.356-3.421 1.866-4.62C60.64 3.47 65.081 3.87 65.97 8.09l.133.932v1.022h-7.018c.044.533.266.933.622 1.288.755.8 1.732.933 2.798.755.666-.133 1.288-.355 1.821-.844.356.533.755 1.066 1.11 1.644-.31.178-.577.4-.843.577-.71.4-1.51.622-2.354.667-.09 0-.178.044-.267.044-.266.089-.577.089-.844.089zm-2.043-5.908h4.575c.044-1.155-1.021-2.043-2.398-1.999-1.2 0-2.266.977-2.177 1.999zM14.71 14.265c-.312-.044-.623-.133-.89-.178-1.865-.444-2.93-1.82-2.93-3.73V4.892v-.311h2.487V10.09c0 .8.222 1.421.977 1.777.8.355 1.599.355 2.354-.178.533-.4.71-.977.71-1.6V4.983v-.356h2.488V10.401c0 2.176-1.332 3.642-3.509 3.909a.824.824 0 0 0-.31.088c-.534-.133-.934-.133-1.378-.133zM38.251 13.998V.94h9.062v2.088c.044.266-.09.31-.356.31h-5.952v2.755h4.398c.266 0 .355.088.31.355v2.088h-4.752v5.419c-.889.044-1.777.044-2.71.044zM66.724 13.998v-.355-8.75c0-.4 0-.4.4-.4 1.377 0 2.754-.045 4.086.044 1.955.133 3.465 1.022 4.176 2.932.71 1.954.177 4.175-1.333 5.374-.888.711-1.91 1.066-3.02 1.11-1.422.045-2.799 0-4.22 0 0 .09 0 .045-.09.045zM69.122 12H70.5c1.6 0 2.621-.888 2.799-2.532.133-1.154-.489-2.31-1.466-2.71-.888-.354-1.777-.177-2.71-.221v5.463zM24.88 6.714h-4.219V4.582h7.64v1.2c.045.354-.089.665-.31.932-1.289 1.599-2.533 3.198-3.776 4.753-.09.089-.134.177-.222.31h4.397v2.177h-7.729v-1.777c0-.088.089-.222.178-.31l3.864-4.931c.045 0 .09-.089.178-.222zM29.012 6.714v-1.91-.222h7.596V6.27c0 .089-.09.177-.134.266-1.332 1.644-2.62 3.332-3.953 4.975-.044.089-.133.178-.222.311h4.13c.223 0 .312.045.312.311v1.866h-7.729v-1.822c0-.088.089-.133.133-.222 1.244-1.599 2.532-3.198 3.776-4.797.089-.133.178-.266.31-.444h-4.219z" fill="#C9C9C9"></path>
</svg>