<svg width="34" height="27" viewBox="0 0 34 27" fill="none" xmlns="http://www.w3.org/2000/svg">
    <path d="M4.39 5.338c-1.334 1.205-1.85 4.003.603 5.596l9.685 6.629L9.986 6.802c-.99-2.54-3.701-3.1-5.595-1.464zM12.741.086C11.148.13 8.781 1.98 9.857 4.864l4.864 11.45 1.722-12.052c.344-2.97-1.894-4.39-3.702-4.176zM17.175 3.788h.904s.473 0 .56.215c-.345.301-1.335.344-1.206 1.894l1.55 10.374 4.82-11.493C24.793 2.195 22.727.086 20.877 0h-.258c-1.635.043-3.53 1.248-3.443 3.788zM23.588 6.887l-4.562 10.632 9.685-6.672c2.238-1.593 1.894-4.132.602-5.38-.516-.603-1.506-1.034-2.496-1.034-1.163 0-2.454.646-3.229 2.454zM27.634 12.354l-9.082 6.37h11.192c2.28 0 3.787-2.367 3.099-4.563-.43-1.377-1.722-2.453-3.272-2.453a4.125 4.125 0 0 0-1.937.646zM4.133 18.724h11.019l-9.082-6.37c-2.11-1.335-4.477-.56-5.338 1.678-.688 2.583 1.076 4.692 3.4 4.692zM0 23.33c0 1.076.904 3.056 4.261 3.056 3.1 0 4.09-1.42 4.09-2.066H5.94s-.13.861-1.464.861c-1.378 0-1.722-1.12-1.722-1.808 0-.646.387-1.722 1.722-1.722 1.377 0 1.463.775 1.463.775h2.41c0-.645-.731-2.066-4.089-2.066C.861 20.317 0 22.426 0 23.33zM25.267 23.33c0 1.076.904 3.056 4.261 3.056 3.1 0 4.09-1.42 4.09-2.066h-2.411s-.13.861-1.464.861c-1.377 0-1.721-1.12-1.721-1.808 0-.646.387-1.722 1.721-1.722 1.378 0 1.464.775 1.464.775h2.41c0-.645-.731-2.066-4.089-2.066-3.357-.043-4.261 2.066-4.261 2.97zM14.936 20.403v3.702l-2.798-3.702H8.953v5.811h2.195v-3.702l2.755 3.702h3.185v-5.81h-2.152zM21.866 24.837h-1.808V23.76h1.808c.388 0 .689.216.689.517 0 .344-.301.56-.689.56zm-1.764-3.272h1.721c.302 0 .517.172.517.43 0 .259-.259.431-.517.431h-1.721v-.86zm3.53 1.593c.386 0 1.204-.474 1.204-1.335 0-1.248-2.367-1.377-2.711-1.377h-4.348v5.811h4.348c2.066 0 2.927-.646 2.927-1.765 0-1.119-1.42-1.334-1.42-1.334z" fill="#C9C9C9"></path>
</svg>