<svg width="58" height="20" viewBox="0 0 58 20" fill="none" xmlns="http://www.w3.org/2000/svg">
    <g clip-path="url(#a)" fill="#6F6F6F">
        <path d="M24.682 10.21c0 2.764-2.13 4.8-4.744 4.8s-4.745-2.036-4.745-4.8c0-2.783 2.13-4.8 4.745-4.8 2.614 0 4.744 2.017 4.744 4.8zm-2.077 0c0-1.726-1.234-2.908-2.667-2.908-1.433 0-2.668 1.182-2.668 2.909 0 1.71 1.235 2.908 2.668 2.908s2.667-1.2 2.667-2.909zM34.917 10.21c0 2.764-2.13 4.8-4.744 4.8-2.615 0-4.745-2.036-4.745-4.8 0-2.78 2.13-4.8 4.745-4.8 2.614 0 4.744 2.017 4.744 4.8zm-2.077 0c0-1.726-1.234-2.908-2.667-2.908-1.433 0-2.668 1.182-2.668 2.909 0 1.71 1.235 2.908 2.668 2.908s2.667-1.2 2.667-2.909zM44.726 5.7v8.618c0 3.545-2.06 4.993-4.495 4.993-2.292 0-3.672-1.556-4.192-2.829l1.808-.764c.322.782 1.111 1.704 2.382 1.704 1.56 0 2.525-.977 2.525-2.814v-.69h-.072c-.465.582-1.36 1.09-2.491 1.09-2.365 0-4.531-2.09-4.531-4.78 0-2.71 2.166-4.818 4.53-4.818 1.129 0 2.025.509 2.492 1.074h.072v-.781h1.972V5.7zm-1.825 4.528c0-1.69-1.11-2.926-2.525-2.926-1.432 0-2.633 1.236-2.633 2.926 0 1.673 1.2 2.891 2.633 2.891 1.414 0 2.525-1.218 2.525-2.891zM47.978.65v14.066h-2.026V.65h2.026zM55.872 11.79l1.612 1.091c-.52.782-1.774 2.128-3.94 2.128-2.687 0-4.694-2.108-4.694-4.8 0-2.855 2.024-4.8 4.461-4.8 2.454 0 3.655 1.982 4.047 3.053l.216.545-6.323 2.658c.484.963 1.237 1.454 2.292 1.454 1.058 0 1.792-.528 2.329-1.328zm-4.962-1.726l4.226-1.782c-.232-.599-.932-1.017-1.755-1.017-1.055 0-2.524.946-2.471 2.799zM7.525 8.962V6.925h6.762c.066.355.1.775.1 1.23 0 1.527-.411 3.417-1.738 4.763-1.29 1.363-2.938 2.09-5.121 2.09-4.048 0-7.45-3.345-7.45-7.453C.077 3.447 3.48.102 7.527.102c2.239 0 3.834.891 5.032 2.053l-1.416 1.437c-.86-.818-2.024-1.454-3.619-1.454-2.955 0-5.266 2.417-5.266 5.417s2.311 5.417 5.266 5.417c1.917 0 3.01-.781 3.709-1.491.567-.576.94-1.398 1.087-2.521l-4.796.002z"></path>
    </g>
    <defs>
        <clipPath id="a">
            <path fill="#fff" d="M0 0h58v19.91H0z"></path>
        </clipPath>
    </defs>
</svg>