<svg width="52" height="95" viewBox="0 0 52 95" fill="none" xmlns="http://www.w3.org/2000/svg">
    <path d="M1.237 82.433s1.369 4.079 9.623 4.958c8.254.88 11.775-.88 11.775-.88s-5.503-4.29-10.785-4.51c-5.283-.22-10.613.432-10.613.432z" fill="#DEDEDE"></path>
    <path d="M1.237 82.433s-.62-4.266 6.215-8.975c6.836-4.707 10.772-4.838 10.772-4.838s-2.26 5.813-7.76 9.216c-4.496 2.782-9.227 4.597-9.227 4.597zM11.025 79.413s4.21-1.899 10.565-1.899c6.356 0 11.142 3.302 11.142 3.302s-4.704 1.897-11.473 1.897c-6.767.001-10.234-3.3-10.234-3.3zM18.805 75.37s.342-4.606 3.375-10.19c3.034-5.585 8.22-8.215 8.22-8.215s-.577 5.04-3.808 10.987-7.787 7.418-7.787 7.418zM21.98 74.795s3.646-2.832 9.825-4.32c6.178-1.489 11.605.6 11.605.6s-4.13 2.949-10.71 4.534c-6.579 1.584-10.72-.814-10.72-.814zM27.448 69.885s2.27-4.02 7.395-7.78c5.124-3.76 10.935-3.932 10.935-3.932s-2.67 4.314-8.125 8.32c-5.456 4.004-10.205 3.392-10.205 3.392zM32.878 61.617s-1.537-4.116-1.135-10.148c.401-6.034 3.837-10.37 3.837-10.37s1.506 4.586 1.079 11.012c-.428 6.422-3.78 9.506-3.78 9.506zM37.19 57.717s1.58-3.663 5.634-7.364c4.056-3.702 9.032-4.384 9.032-4.384s-1.895 3.952-6.214 7.894c-4.317 3.941-8.452 3.854-8.452 3.854zM39.635 49.599s.195-3.985 2.694-8.874c2.5-4.888 6.92-7.273 6.92-7.273s-.39 4.365-3.051 9.571c-2.66 5.207-6.563 6.576-6.563 6.576zM41.342 37.709s-.343-3.975 1.475-9.155c1.82-5.181 5.879-8.138 5.879-8.138s.201 4.378-1.735 9.893c-1.936 5.52-5.62 7.4-5.62 7.4zM39.695 29.873s-1.825-3.547-2.107-9.03c-.282-5.484 2.354-9.76 2.354-9.76s1.847 3.974 2.148 9.813c.301 5.84-2.395 8.977-2.395 8.977zM35.199 20.445s-2.377-3.203-3.546-8.568c-1.169-5.364.736-10.013.736-10.013s2.47 3.622 3.714 9.335c1.245 5.713-.904 9.246-.904 9.246zM39.427 44.486s-2.971-2.661-5.192-7.683c-2.22-5.022-1.286-9.958-1.286-9.958s3.145 3.053 5.51 8.4c2.365 5.348.968 9.24.968 9.24zM36.142 26.537s-3.797-1.222-7.87-4.904c-4.072-3.682-5.228-8.57-5.228-8.57s4.115 1.508 8.452 5.43c4.338 3.92 4.646 8.044 4.646 8.044zM30.532 15.552s-3.594-1.735-7.12-5.94c-3.527-4.209-3.998-9.21-3.998-9.21s3.867 2.06 7.624 6.541c3.754 4.48 3.494 8.609 3.494 8.609zM.666 85.015c0 5.522 9.086 11.532 9.086 8.597 0-2.934-9.086-6.64-9.086-8.597z" fill="#DEDEDE"></path>
</svg>