<svg width="80" height="24" viewBox="0 0 80 24" fill="none" xmlns="http://www.w3.org/2000/svg">
    <path d="M40.396 14.708c2.855-1.428 5.158-3.454 7.184-5.803.369.277.737.507 1.152.83l-.415.552c-1.98 2.257-4.283 4.19-6.954 5.618-.23.139-.506.23-.782.369-.139.046-.185.138-.23.322-.093.415.137.645.506.783 1.335.599 2.763.921 4.237.783 1.658-.184 2.901-1.013 3.776-2.44a14.143 14.143 0 0 0 1.658-3.823c.046-.138.092-.23.092-.415.415.046.875.092 1.29.185.046 0 .138.184.138.23-.046.829-.092 1.658-.139 2.44v.093c.185-.46.369-.875.553-1.29.322-.69.599-1.381.921-2.118.092-.184.138-.23.323-.184.322.046.644.092.92.138.139 0 .23.092.23.23.185 1.336.323 2.671.508 4.007.092.506.184 1.013.368 1.473.276.737.783.921 1.474.6.552-.231.967-.646 1.381-1.06a9.247 9.247 0 0 0 1.934-3.316c.185-.553.277-1.151.415-1.704.184-.783.184-.783.967-.599 1.29.323 2.625.369 3.914.415.876.046 1.797 0 2.672 0h.276c.276-2.717.507-5.434.783-8.198.506.046.967.093 1.427.139-.276 2.67-.506 5.296-.782 7.967 2.9-.277 5.71-.783 8.381-1.98.184.414.415.874.599 1.335-2.901 1.29-5.895 1.842-9.026 2.118v1.75c0 1.244 0 2.487.092 3.685.046 1.059.184 2.072.644 3.04.415.828 1.014 1.012 1.843.69.828-.368 1.427-1.013 1.934-1.704.645-.875 1.151-1.796 1.473-2.855 0-.046.047-.092.047-.138.46.138.92.23 1.427.368-.184.507-.368.967-.599 1.428-.644 1.335-1.473 2.579-2.625 3.546-.598.506-1.29.875-2.072.967-1.243.138-2.303-.507-2.855-1.704-.553-1.198-.691-2.487-.737-3.823-.046-1.611-.046-3.223-.046-4.789v-.322H64.85c.23.276.507.552.737.875 1.013 1.381 1.52 2.947 1.29 4.697-.138 1.06-.645 1.98-1.658 2.487-1.474.737-3.224.138-4.099-1.336-.414-.736-.645-1.566-.737-2.44 0-.139-.046-.277-.046-.415-.368.415-.737.875-1.105 1.29a4.195 4.195 0 0 1-2.026 1.243c-1.106.276-2.073-.092-2.625-1.06-.415-.69-.6-1.473-.691-2.302-.092-.507-.138-1.013-.23-1.612a675.86 675.86 0 0 1-2.487 5.619l-1.382-.415c.138-.967.23-1.934.369-2.901h-.046c-.093.138-.185.322-.323.46-1.428 2.073-3.408 3.04-5.94 2.902-1.198-.046-2.35-.369-3.5-.83-.047-.045-.093-.045-.185-.045l-.092.046v4.283H38.6v-.967c.046-1.336.046-2.671.092-3.96 0-.093-.046-.185-.138-.277l-1.105-.83c-.138-.091-.184-.183-.092-.322.092-.23.138-.506.184-.736.046-.23.138-.369.414-.369.23-.046.461-.138.691-.184.138-.046.184-.092.184-.23.093-1.796.139-3.546.23-5.342.139-1.98.277-3.961.415-5.987 0-.046 0-.046.046-.139l1.382.139c-.092 3.546-.322 7.138-.507 10.822zm21.83-2.303c-.047.139-.047.23-.093.369-.23 1.335-.322 2.671-.138 4.007.092.736.277 1.427.69 2.026.415.553.968.737 1.567.645.598-.093.875-.507 1.059-1.014.23-.644.184-1.29.092-1.934-.322-1.934-1.52-3.131-3.178-4.099zM11.107 10.102c.046.461.138.875.184 1.29 0 .138-.046.184-.184.184-.783.092-1.612.184-2.395.276-.507.047-.967.093-1.474.185a.198.198 0 0 0-.184.184c-.23 2.303-.46 4.605-.369 6.908 0 .506.093 1.013.323 1.566.23-.139.46-.23.645-.369.783-.598 1.427-1.335 2.026-2.118a24.936 24.936 0 0 0 4.19-8.336 62.13 62.13 0 0 0 .784-2.763c.138-.645.184-1.335.322-1.98.23-1.198.415-2.395.645-3.592.046-.185.138-.369.184-.507a.804.804 0 0 1 .829-.414c.322.046.645.368.645.69 0 .645-.046 1.29-.184 1.889-.23 1.197-.6 2.394-.83 3.592-.138.783-.184 1.565-.276 2.348a70.33 70.33 0 0 0-.368 6.954v.46h.046c.23-.275.414-.598.645-.874 1.059-1.566 2.164-3.086 3.223-4.651.092-.139.184-.185.369-.139.276.092.552.185.875.277.184.046.23.138.23.322-.046.783-.046 1.52-.046 2.303 0 .829.046 1.612.276 2.394.323 1.198 1.06 1.75 2.257 1.75.414 0 .829-.092 1.243-.138.092 0 .138-.046.23-.046a9.456 9.456 0 0 1 .461-2.533c.46-1.29 1.105-2.487 2.21-3.362.415-.322.876-.598 1.428-.644.921-.046 1.566.506 1.612 1.427.046.875-.184 1.658-.552 2.441-.737 1.612-1.889 2.855-3.5 3.638-.047.047-.139.139-.139.185.092.368.184.736.323 1.059.322.645 1.013.92 1.842.783.737-.138 1.29-.507 1.75-1.06.69-.828 1.105-1.842 1.381-2.855.047-.092.047-.184.093-.276 0 0 0-.046.046-.046.46.092.92.184 1.427.276-.23.691-.414 1.336-.69 1.98-.415 1.06-1.06 1.98-1.98 2.671-.876.691-1.889.968-2.994.83-1.244-.185-1.98-1.014-2.395-2.119-.092-.276-.138-.506-.23-.783-.507.046-1.014.138-1.52.138-1.98.046-3.316-1.013-3.73-2.947-.185-.829-.23-1.658-.323-2.487v-.276c-.138.23-.276.368-.414.552-1.106 1.612-2.257 3.224-3.362 4.79-.092.138-.184.184-.322.138a6.128 6.128 0 0 0-.876-.23c-.138-.046-.23-.092-.23-.276-.046-.645-.092-1.29-.092-1.935v-3.5a9.185 9.185 0 0 1-.46.967c-1.106 2.257-2.395 4.375-4.1 6.218-.598.644-1.243 1.197-2.025 1.52-.921.368-1.612.045-2.027-.83-.322-.783-.368-1.612-.368-2.44-.046-2.073.138-4.191.368-6.264v-.23l-1.381.138c-1.014.046-2.027.138-2.994.184a.352.352 0 0 1-.23-.092c-.046-.414-.046-.875-.092-1.335.414-.046.829-.092 1.243-.092 1.106-.093 2.21-.23 3.362-.323.184 0 .276-.092.276-.276.185-1.888.415-3.776.645-5.665 0-.046.046-.138.046-.23.46.046.921.092 1.428.138-.23 1.935-.46 3.869-.645 5.803 1.29-.092 2.533-.276 3.869-.415zm15.381 6.954c.046-.046.092-.046.139-.046 1.243-.829 2.072-1.98 2.532-3.408.093-.322.185-.598.093-.967-.277 0-.461.092-.783.369-1.152 1.105-1.75 2.487-1.98 4.053z" fill="#C9C9C9"></path>
</svg>