<svg width="91" height="17" viewBox="0 0 91 17" fill="none" xmlns="http://www.w3.org/2000/svg">
    <path d="M16.224 8.112c0 4.461-3.65 8.112-8.112 8.112S0 12.574 0 8.112 3.65 0 8.112 0c4.461 0 8.112 3.65 8.112 8.112zM19.924 9.531V3.802h2.586v5.02c0 1.013.101 1.926 1.42 1.926 1.318 0 1.42-.963 1.42-1.927V3.802h2.585v5.73c0 2.23-1.42 3.447-4.005 3.447-2.637 0-4.006-1.217-4.006-3.448zM28.594 11.661l1.267-1.724c.507.66 1.319 1.014 2.13 1.065.659 0 1.065-.304 1.065-.811 0-.608-.558-.811-1.572-1.115C30.166 8.67 29 8.01 29 6.439 29 4.715 30.42 3.6 32.396 3.6c1.37 0 2.434.406 3.093 1.014l-1.166 1.724c-.456-.507-1.115-.76-1.775-.76-.659 0-.963.253-.963.608 0 .557.66.71 1.42.963 1.47.456 2.585 1.115 2.585 2.788 0 1.724-1.267 3.042-3.498 3.042-1.673 0-2.94-.71-3.498-1.318zM41.471 9.43l-.71-2.18a6.64 6.64 0 0 1-.304-1.37h-.101a6.64 6.64 0 0 1-.304 1.37l-.71 2.18h2.13zm-2.433-5.628h2.839l3.346 9.025h-2.687l-.406-1.319h-3.396l-.406 1.319h-2.636l3.346-9.025zM49.127 5.932h-2.23V3.853h7.046v2.079h-2.23v6.946h-2.586V5.932zM61.345 8.315c0-1.622-1.064-2.433-2.332-2.433-1.267 0-2.281.81-2.281 2.433 0 1.622 1.065 2.434 2.281 2.434 1.217 0 2.332-.812 2.332-2.434zm-7.25 0c0-2.23 1.572-4.715 4.969-4.715 3.346 0 4.968 2.484 4.968 4.715 0 2.23-1.571 4.664-4.968 4.664-3.397.051-4.968-2.433-4.968-4.664zM67.53 10.748h.558c1.673 0 2.535-.811 2.535-2.434 0-1.622-.912-2.433-2.535-2.433h-.557v4.867zm-2.585-6.946h3.346c3.194 0 5.02 1.673 5.02 4.512 0 2.738-1.877 4.513-5.02 4.513h-3.346V3.802zM78.684 9.48l-.71-2.18a6.64 6.64 0 0 1-.304-1.368h-.101a6.64 6.64 0 0 1-.305 1.368l-.71 2.18h2.13zM76.25 3.802h2.84l3.346 9.025h-2.687l-.406-1.319h-3.397l-.405 1.319h-2.637l3.346-9.025zM84.058 9.633l-3.346-5.78h2.84l1.216 2.231c.254.456.609 1.217.71 1.673h.05c.102-.456.457-1.217.71-1.673l1.217-2.23h2.738l-3.346 5.779v3.194h-2.738V9.633" fill="#C9C9C9"></path>
</svg>