<svg class="logo" id="Layer_1" xmlns="http://www.w3.org/2000/svg" viewBox="0 0 1355 199.1">
    <title>Candid</title>
    <path class="st0" d="M679.1 129.9L596.8 2c-.7-1.1-2-1.8-3.4-1.8h-35c-2.2 0-4 1.8-4 4v190.9c0 2.2 1.8 4 4 4h29.3c2.2 0 4-1.8 4-4V66c0-2 2.6-2.7 3.6-1.1l85.1 132.3c.7 1.1 2 1.8 3.4 1.8h32c2.2 0 4-1.8 4-4V4.2c0-2.2-1.8-4-4-4h-29.1c-2.2 0-4 1.8-4 4v124.7c.1 1.9-2.5 2.7-3.6 1M1043.7 199.1h30.8c2.2 0 4-1.8 4-4V4.2c0-2.2-1.8-4-4-4h-30.8c-2.2 0-4 1.8-4 4v190.9c0 2.2 1.8 4 4 4M963.6 93.3c-2.5-41-29.9-75.2-67.3-87.8-9-2.8-18.7-4.6-29.1-5.1-2.4-.1-4.8-.2-7.3-.2h-60.3c-2.2 0-4 1.8-4 4V195c0 2.2 1.8 4 4 4h61.1c8.2 0 16.1-.8 23.6-2.4.2 0 .4-.1.5-.1 1.4-.3 2.7-.6 4.1-.9.3-.1.6-.2.9-.2 40.9-10.8 71.4-46.9 73.7-90.6.1-1.7.1-3.4.1-5.2.2-2.1.2-4.2 0-6.3M881 159.8c-6.9 2.1-14.4 3.3-22.6 3.3h-20c-2.2 0-4-1.8-4-4V39.8c0-2.2 1.8-4 4-4h18.9c14.2 0 26.3 2.9 36.2 8.1.4.2.9.4 1.3.7.2.1.5.3.7.4 18.9 10.7 31.7 31.1 31.7 54.4 0 28.9-19.6 53.2-46.2 60.4M1322.4 93.3c-2.5-41-29.9-75.2-67.3-87.8-9-2.8-18.7-4.6-29.1-5.1-2.4-.1-4.8-.2-7.3-.2h-60.3c-2.2 0-4 1.8-4 4V195c0 2.2 1.8 4 4 4h61.1c8.2 0 16.1-.8 23.6-2.4.2 0 .4-.1.5-.1 1.4-.3 2.7-.6 4.1-.9.3-.1.6-.2.9-.2 40.9-10.8 71.4-46.9 73.7-90.6.1-1.7.1-3.4.1-5.2.1-2.1.1-4.2 0-6.3m-82.7 66.5c-6.9 2.1-14.4 3.3-22.6 3.3h-20c-2.2 0-4-1.8-4-4V39.8c0-2.2 1.8-4 4-4h18.9c14.2 0 26.3 2.9 36.2 8.1.4.2.9.4 1.3.7.2.1.5.3.7.4 18.9 10.7 31.7 31.1 31.7 54.4 0 28.9-19.6 53.2-46.2 60.4M477.7 193.5L453.3 129l-.3-1-5.4-14.2-11.4-30.2-1.2-3.2-8.2-21.6L410.6 16l-.5-1.4-3.1-8.3-1.4-3.7c-.7-1.6-2.2-2.6-3.8-2.6h-32.3c-1.7 0-3.2 1-3.7 2.6l-1.1 2.9-.4 1L354 33.8l-19 50.4v-.1l-6.3 16.6-1.8 4.9-1.3 3.4c-7.9-9.8-12.8-22-13.6-35.3-.1-2.1-1.9-3.8-4-3.8h-28.7c-2.3 0-4.1 1.9-4 4.2 1.2 29.2 15 55.1 36.1 72.5l-17.9 47c-1 2.6.9 5.4 3.7 5.4h30.9c1.7 0 3.2-1.1 3.8-2.6l6.5-17.7 5.3-14.4c9.7 3.1 20 4.8 30.7 4.8 18.3 0 35.4-5 50.1-13.6l14.8 40.9c.6 1.6 2.1 2.6 3.8 2.6H474c2.8-.1 4.7-2.9 3.7-5.5m-121.5-63.8l1-2.6.1-.4 10.4-28.4 15.9-43.5c.7-2.1 3.7-2.1 4.4 0l15.9 43.7 5.2 14.2.6 1.5 1.1 3 .5 1.5.5 1.3c-10.4 7.8-23.3 12.4-37.3 12.4-6.5 0-12.5-1-18.3-2.7M131.6 161.8c-34.8 0-63-28.5-62.5-63.5.5-32.8 26.8-60 59.6-61.5 23.5-1.1 44.3 10.8 55.8 29.1 1.1 1.8 3.6 2.4 5.4 1.3L214.7 53c2-1.1 2.6-3.6 1.4-5.6-17.7-28.8-49.7-48-86.2-47.4-53.3 1-96.7 44.6-97.4 97.9-.8 55.4 43.9 100.6 99.1 100.6 36.2 0 67.9-19.4 85.2-48.4 1.1-1.9.5-4.4-1.5-5.5l-24.9-14.2c-1.9-1.1-4.3-.4-5.4 1.4-10.9 17.9-30.8 30-53.4 30"></path>
</svg>

