<svg class="styled-components__RedDollarSign-u3lzfe-7 djBsPp" width="10" height="16" viewBox="0 0 10 16" fill="none" xmlns="http://www.w3.org/2000/svg">
    <path d="M9.865 10.74c0 .947-.313 1.76-.94 2.44-.626.667-1.466 1.113-2.52 1.34V16h-2.44v-1.46c-.986-.16-1.806-.547-2.46-1.16-.653-.613-1.113-1.427-1.38-2.44l2.32-.66c.214.787.527 1.353.94 1.7.414.333.987.5 1.72.5.694 0 1.254-.147 1.68-.44.427-.307.64-.74.64-1.3 0-.4-.16-.74-.48-1.02-.306-.28-.933-.5-1.88-.66-1.506-.28-2.646-.733-3.42-1.36-.76-.627-1.14-1.48-1.14-2.56 0-.973.32-1.793.96-2.46.64-.667 1.474-1.093 2.5-1.28V0h2.44v1.46c.827.187 1.514.567 2.06 1.14.56.573.954 1.327 1.18 2.26l-2.32.64c-.186-.72-.453-1.233-.8-1.54-.346-.32-.826-.48-1.44-.48-.68 0-1.206.147-1.58.44-.373.293-.56.7-.56 1.22 0 .413.187.733.56.96.387.227 1.054.433 2 .62C7 7.027 8.1 7.5 8.805 8.14c.707.627 1.06 1.493 1.06 2.6z" fill="#000" fill-opacity=".56"></path>
</svg>